# xmcd
#
# Track frame offsets:
#	150
#	17144
#	39225
#	60490
#	89315
#	108195
#	140102
#	156050
#	183729
#	208094
#	229006
#	238585
#	254633
#	276890
#	297926
#
# Disc length: 4270 seconds
#
# Revision: 1
# Processed by: cddbd v1.5.2PL0 Copyright (c) Steve Scherf et al.
# Submitted via: audiograbber 1.83.01
#
DISCID=d810ac0f
DTITLE=Tom Vieth - G-Town-Girls
DYEAR=2010
DGENRE=Blues
TTITLE0=A Plus In My Life
TTITLE1=G-Town Girls
TTITLE2=Paradise Woman
TTITLE3=The Sweetest Dream
TTITLE4=Me And My Babe
TTITLE5=Lost Girl Blues
TTITLE6=You Can't Stop Me
TTITLE7=Painful Love Affaire
TTITLE8=I Deserve A Sweet Woman
TTITLE9=Sitting Here Thinking
TTITLE10=Too Tired For Making Love
TTITLE11=Loving Time
TTITLE12=You Are Doing Me Good
TTITLE13=Let Me Be Your Dog
TTITLE14=Bobby's Rock
EXTD=
EXTT0=
EXTT1=
EXTT2=
EXTT3=
EXTT4=
EXTT5=
EXTT6=
EXTT7=
EXTT8=
EXTT9=
EXTT10=
EXTT11=
EXTT12=
EXTT13=
EXTT14=
PLAYORDER=
